<?xml version="1.0" encoding="UTF-8"?>
<svg width="2103px" height="1360px" viewBox="0 0 2103 1360" version="1.1" xmlns="http://www.w3.org/2000/svg" xmlns:xlink="http://www.w3.org/1999/xlink">
    <!-- Generator: Sketch 42 (36781) - http://www.bohemiancoding.com/sketch -->
    <title>Group 2</title>
    <desc>Created with Sketch.</desc>
    <defs></defs>
    <g id="Page-1" stroke="none" stroke-width="1" fill="none" fill-rule="evenodd">
        <g id="Group-2" fill-rule="nonzero" fill="#FFFFFF">
            <path d="M1254.92571,951.516254 C1254.92571,951.516254 1264.40776,892.533382 1205.93533,820.444785 C1262.82431,654.952325 1270.72619,504.21516 1270.72619,504.21516 C1270.72619,504.21516 1387.66667,532.06085 1387.66667,651.666316 C1387.66776,856.487987 1254.92571,951.516254 1254.92571,951.516254 L1254.92571,951.516254 Z M932.554827,879.613741 C932.554827,879.613741 854.236046,619.00654 854.236046,510.869272 C854.236046,462.234813 859.509827,418.952976 867.735423,379.686157 L1224.59217,379.686157 C1232.88141,418.983624 1238.19469,462.297204 1238.19469,510.906491 C1238.19469,617.407321 1160.10855,879.613741 1160.10855,879.613741 L932.554827,879.613741 L932.554827,879.613741 Z M1046.06942,439.257923 C1005.92353,439.257923 973.38106,472.998077 973.38106,514.627054 C973.38106,556.249466 1005.92353,589.992902 1046.06942,589.992902 C1086.21861,589.992902 1118.75999,556.250562 1118.75999,514.627054 C1118.76109,472.999173 1086.21861,439.257923 1046.06942,439.257923 L1046.06942,439.257923 Z M1030.41928,102.62374 L1030.41928,0 L1058.71617,0 L1058.71617,100.020761 C1091.05565,124.435964 1178.58872,202.0556 1218.1618,351.632486 L874.10434,351.632486 C912.343064,206.204158 995.641535,129.404383 1030.41928,102.62374 L1030.41928,102.62374 Z M837.742049,951.516254 C837.742049,951.516254 705,856.489083 705,651.665219 C705,532.059761 821.934982,504.214063 821.934982,504.214063 C821.934982,504.214063 829.835774,654.951228 886.726948,820.443695 C828.257812,892.533382 837.742049,951.516254 837.742049,951.516254 L837.742049,951.516254 Z M1094.19072,966.65247 L1070.48616,942.080741 L1045.20253,1024 L1015.17624,942.080741 L994.63418,984.678451 L964.610086,907.668502 L1127.37843,907.668502 L1094.19072,966.65247 L1094.19072,966.65247 Z" id="Shape"></path>
            <g id="Group" transform="translate(976.000000, 512.000000)">
                <g id="云" transform="translate(479.000000, 304.000000)">
                    <path d="M147.348847,363.489748 C144.102566,363.970587 140.780802,364.219681 137.400889,364.219681 C100.202646,364.219681 70.0475122,334.048291 70.0475122,296.829996 C70.0475122,262.32382 95.9679293,233.874945 129.390059,229.912004 C128.89849,226.125123 128.64495,222.263476 128.64495,218.34258 C128.64495,169.21443 168.449728,129.388195 217.551408,129.388195 C254.666882,129.388195 286.470386,152.143704 299.785789,184.471488 C299.743724,183.187617 299.722528,181.898463 299.722528,180.604356 C299.722528,116.588888 351.589359,64.6940977 415.570336,64.6940977 C479.551314,64.6940977 531.418145,116.588888 531.418145,180.604356 C531.418145,197.327396 527.878577,213.223279 521.508131,227.582931 C555.365905,231.698123 581.596411,260.567123 581.596411,295.568557 C581.596411,333.393711 550.962927,364.057055 513.174611,364.057055 C510.17654,364.057055 507.223505,363.864042 504.327233,363.489751 L147.348852,363.489748 L147.348847,363.489748 Z M137.82665,415.602414 C132.402498,416.345085 126.864073,416.728779 121.236079,416.728779 C54.2792412,416.728779 0,362.420277 0,295.427346 C0,239.932362 37.2463104,193.14141 88.0914579,178.71471 C96.1402876,119.530832 146.853808,73.9213778 208.214247,73.9213778 C229.394603,73.9213778 249.306393,79.3556888 266.632797,88.9067841 C295.369618,35.9514494 351.436184,0 415.895137,0 C509.634709,0 585.625648,76.0319026 585.625648,169.822006 C585.625648,176.262056 585.267364,182.618379 584.569653,188.87211 C622.255671,209.44476 647.823243,249.44863 647.823243,295.427346 C647.823243,362.420277 593.544002,416.728779 526.587165,416.728779 C520.959172,416.728779 515.420748,416.345085 509.996597,415.602416 L137.82665,415.602414 Z" id="Shape"></path>
                </g>
                <g id="云" transform="translate(479.000000, 0.000000)">
                    <path d="M147.348847,363.489748 C144.102566,363.970587 140.780802,364.219681 137.400889,364.219681 C100.202646,364.219681 70.0475122,334.048291 70.0475122,296.829996 C70.0475122,262.32382 95.9679293,233.874945 129.390059,229.912004 C128.89849,226.125123 128.64495,222.263476 128.64495,218.34258 C128.64495,169.21443 168.449728,129.388195 217.551408,129.388195 C254.666882,129.388195 286.470386,152.143704 299.785789,184.471488 C299.743724,183.187617 299.722528,181.898463 299.722528,180.604356 C299.722528,116.588888 351.589359,64.6940977 415.570336,64.6940977 C479.551314,64.6940977 531.418145,116.588888 531.418145,180.604356 C531.418145,197.327396 527.878577,213.223279 521.508131,227.582931 C555.365905,231.698123 581.596411,260.567123 581.596411,295.568557 C581.596411,333.393711 550.962927,364.057055 513.174611,364.057055 C510.17654,364.057055 507.223505,363.864042 504.327233,363.489751 L147.348852,363.489748 L147.348847,363.489748 Z M137.82665,415.602414 C132.402498,416.345085 126.864073,416.728779 121.236079,416.728779 C54.2792412,416.728779 0,362.420277 0,295.427346 C0,239.932362 37.2463104,193.14141 88.0914579,178.71471 C96.1402876,119.530832 146.853808,73.9213778 208.214247,73.9213778 C229.394603,73.9213778 249.306393,79.3556888 266.632797,88.9067841 C295.369618,35.9514494 351.436184,0 415.895137,0 C509.634709,0 585.625648,76.0319026 585.625648,169.822006 C585.625648,176.262056 585.267364,182.618379 584.569653,188.87211 C622.255671,209.44476 647.823243,249.44863 647.823243,295.427346 C647.823243,362.420277 593.544002,416.728779 526.587165,416.728779 C520.959172,416.728779 515.420748,416.345085 509.996597,415.602416 L137.82665,415.602414 Z" id="Shape"></path>
                </g>
                <g id="云" transform="translate(0.000000, 431.000000)">
                    <path d="M147.348847,363.489748 C144.102566,363.970587 140.780802,364.219681 137.400889,364.219681 C100.202646,364.219681 70.0475122,334.048291 70.0475122,296.829996 C70.0475122,262.32382 95.9679293,233.874945 129.390059,229.912004 C128.89849,226.125123 128.64495,222.263476 128.64495,218.34258 C128.64495,169.21443 168.449728,129.388195 217.551408,129.388195 C254.666882,129.388195 286.470386,152.143704 299.785789,184.471488 C299.743724,183.187617 299.722528,181.898463 299.722528,180.604356 C299.722528,116.588888 351.589359,64.6940977 415.570336,64.6940977 C479.551314,64.6940977 531.418145,116.588888 531.418145,180.604356 C531.418145,197.327396 527.878577,213.223279 521.508131,227.582931 C555.365905,231.698123 581.596411,260.567123 581.596411,295.568557 C581.596411,333.393711 550.962927,364.057055 513.174611,364.057055 C510.17654,364.057055 507.223505,363.864042 504.327233,363.489751 L147.348852,363.489748 L147.348847,363.489748 Z M137.82665,415.602414 C132.402498,416.345085 126.864073,416.728779 121.236079,416.728779 C54.2792412,416.728779 0,362.420277 0,295.427346 C0,239.932362 37.2463104,193.14141 88.0914579,178.71471 C96.1402876,119.530832 146.853808,73.9213778 208.214247,73.9213778 C229.394603,73.9213778 249.306393,79.3556888 266.632797,88.9067841 C295.369618,35.9514494 351.436184,0 415.895137,0 C509.634709,0 585.625648,76.0319026 585.625648,169.822006 C585.625648,176.262056 585.267364,182.618379 584.569653,188.87211 C622.255671,209.44476 647.823243,249.44863 647.823243,295.427346 C647.823243,362.420277 593.544002,416.728779 526.587165,416.728779 C520.959172,416.728779 515.420748,416.345085 509.996597,415.602416 L137.82665,415.602414 Z" id="Shape"></path>
                </g>
            </g>
            <g id="Group" transform="translate(563.500000, 936.000000) scale(-1, 1) translate(-563.500000, -936.000000) translate(0.000000, 512.000000)">
                <g id="云" transform="translate(479.000000, 304.000000)">
                    <path d="M147.348847,363.489748 C144.102566,363.970587 140.780802,364.219681 137.400889,364.219681 C100.202646,364.219681 70.0475122,334.048291 70.0475122,296.829996 C70.0475122,262.32382 95.9679293,233.874945 129.390059,229.912004 C128.89849,226.125123 128.64495,222.263476 128.64495,218.34258 C128.64495,169.21443 168.449728,129.388195 217.551408,129.388195 C254.666882,129.388195 286.470386,152.143704 299.785789,184.471488 C299.743724,183.187617 299.722528,181.898463 299.722528,180.604356 C299.722528,116.588888 351.589359,64.6940977 415.570336,64.6940977 C479.551314,64.6940977 531.418145,116.588888 531.418145,180.604356 C531.418145,197.327396 527.878577,213.223279 521.508131,227.582931 C555.365905,231.698123 581.596411,260.567123 581.596411,295.568557 C581.596411,333.393711 550.962927,364.057055 513.174611,364.057055 C510.17654,364.057055 507.223505,363.864042 504.327233,363.489751 L147.348852,363.489748 L147.348847,363.489748 Z M137.82665,415.602414 C132.402498,416.345085 126.864073,416.728779 121.236079,416.728779 C54.2792412,416.728779 0,362.420277 0,295.427346 C0,239.932362 37.2463104,193.14141 88.0914579,178.71471 C96.1402876,119.530832 146.853808,73.9213778 208.214247,73.9213778 C229.394603,73.9213778 249.306393,79.3556888 266.632797,88.9067841 C295.369618,35.9514494 351.436184,0 415.895137,0 C509.634709,0 585.625648,76.0319026 585.625648,169.822006 C585.625648,176.262056 585.267364,182.618379 584.569653,188.87211 C622.255671,209.44476 647.823243,249.44863 647.823243,295.427346 C647.823243,362.420277 593.544002,416.728779 526.587165,416.728779 C520.959172,416.728779 515.420748,416.345085 509.996597,415.602416 L137.82665,415.602414 Z" id="Shape"></path>
                </g>
                <g id="云" transform="translate(479.000000, 0.000000)">
                    <path d="M147.348847,363.489748 C144.102566,363.970587 140.780802,364.219681 137.400889,364.219681 C100.202646,364.219681 70.0475122,334.048291 70.0475122,296.829996 C70.0475122,262.32382 95.9679293,233.874945 129.390059,229.912004 C128.89849,226.125123 128.64495,222.263476 128.64495,218.34258 C128.64495,169.21443 168.449728,129.388195 217.551408,129.388195 C254.666882,129.388195 286.470386,152.143704 299.785789,184.471488 C299.743724,183.187617 299.722528,181.898463 299.722528,180.604356 C299.722528,116.588888 351.589359,64.6940977 415.570336,64.6940977 C479.551314,64.6940977 531.418145,116.588888 531.418145,180.604356 C531.418145,197.327396 527.878577,213.223279 521.508131,227.582931 C555.365905,231.698123 581.596411,260.567123 581.596411,295.568557 C581.596411,333.393711 550.962927,364.057055 513.174611,364.057055 C510.17654,364.057055 507.223505,363.864042 504.327233,363.489751 L147.348852,363.489748 L147.348847,363.489748 Z M137.82665,415.602414 C132.402498,416.345085 126.864073,416.728779 121.236079,416.728779 C54.2792412,416.728779 0,362.420277 0,295.427346 C0,239.932362 37.2463104,193.14141 88.0914579,178.71471 C96.1402876,119.530832 146.853808,73.9213778 208.214247,73.9213778 C229.394603,73.9213778 249.306393,79.3556888 266.632797,88.9067841 C295.369618,35.9514494 351.436184,0 415.895137,0 C509.634709,0 585.625648,76.0319026 585.625648,169.822006 C585.625648,176.262056 585.267364,182.618379 584.569653,188.87211 C622.255671,209.44476 647.823243,249.44863 647.823243,295.427346 C647.823243,362.420277 593.544002,416.728779 526.587165,416.728779 C520.959172,416.728779 515.420748,416.345085 509.996597,415.602416 L137.82665,415.602414 Z" id="Shape"></path>
                </g>
                <g id="云" transform="translate(0.000000, 431.000000)">
                    <path d="M147.348847,363.489748 C144.102566,363.970587 140.780802,364.219681 137.400889,364.219681 C100.202646,364.219681 70.0475122,334.048291 70.0475122,296.829996 C70.0475122,262.32382 95.9679293,233.874945 129.390059,229.912004 C128.89849,226.125123 128.64495,222.263476 128.64495,218.34258 C128.64495,169.21443 168.449728,129.388195 217.551408,129.388195 C254.666882,129.388195 286.470386,152.143704 299.785789,184.471488 C299.743724,183.187617 299.722528,181.898463 299.722528,180.604356 C299.722528,116.588888 351.589359,64.6940977 415.570336,64.6940977 C479.551314,64.6940977 531.418145,116.588888 531.418145,180.604356 C531.418145,197.327396 527.878577,213.223279 521.508131,227.582931 C555.365905,231.698123 581.596411,260.567123 581.596411,295.568557 C581.596411,333.393711 550.962927,364.057055 513.174611,364.057055 C510.17654,364.057055 507.223505,363.864042 504.327233,363.489751 L147.348852,363.489748 L147.348847,363.489748 Z M137.82665,415.602414 C132.402498,416.345085 126.864073,416.728779 121.236079,416.728779 C54.2792412,416.728779 0,362.420277 0,295.427346 C0,239.932362 37.2463104,193.14141 88.0914579,178.71471 C96.1402876,119.530832 146.853808,73.9213778 208.214247,73.9213778 C229.394603,73.9213778 249.306393,79.3556888 266.632797,88.9067841 C295.369618,35.9514494 351.436184,0 415.895137,0 C509.634709,0 585.625648,76.0319026 585.625648,169.822006 C585.625648,176.262056 585.267364,182.618379 584.569653,188.87211 C622.255671,209.44476 647.823243,249.44863 647.823243,295.427346 C647.823243,362.420277 593.544002,416.728779 526.587165,416.728779 C520.959172,416.728779 515.420748,416.345085 509.996597,415.602416 L137.82665,415.602414 Z" id="Shape"></path>
                </g>
            </g>
        </g>
    </g>
</svg>