<?xml version="1.0" standalone="no"?><!DOCTYPE svg PUBLIC "-//W3C//DTD SVG 1.1//EN" "http://www.w3.org/Graphics/SVG/1.1/DTD/svg11.dtd"><svg t="1491641394734" class="icon" style="" viewBox="0 0 1024 1024" version="1.1" xmlns="http://www.w3.org/2000/svg" p-id="2383" xmlns:xlink="http://www.w3.org/1999/xlink" width="48" height="48"><defs><style type="text/css"></style></defs><path d="M511.991302 223.228107c-160.9149 0-291.841811 129.293715-291.841811 288.223401 0 158.930709 130.926912 288.223401 291.841811 288.223401 160.930249 0 291.857161-129.293715 291.857161-288.223401C803.848463 352.521822 672.921551 223.228107 511.991302 223.228107zM511.991302 763.656577c-140.80591 0-255.366062-113.139803-255.366062-252.205069 0-139.049916 114.560152-252.189719 255.366062-252.189719 140.821259 0 255.380388 113.139803 255.380388 252.189719C767.372713 650.516774 652.812561 763.656577 511.991302 763.656577z" p-id="2384" fill="#ffffff"></path><path d="M439.03878 475.433176c0-19.910469-16.338107-36.033681-36.492122-36.033681-20.138666 0-36.476773 16.123212-36.476773 36.033681 0 19.895119 16.338107 36.018332 36.476773 36.018332C422.700673 511.451508 439.03878 495.328295 439.03878 475.433176z" p-id="2385" fill="#ffffff"></path><path d="M621.435946 439.399495c-20.139689 0-36.476773 16.123212-36.476773 36.033681 0 19.895119 16.337083 36.018332 36.476773 36.018332 20.154016 0 36.491099-16.123212 36.491099-36.018332C657.927045 455.522708 641.590985 439.399495 621.435946 439.399495z" p-id="2386" fill="#ffffff"></path><path d="M581.413418 591.812767c-3.040243 0-5.870708 0.864694-8.289804 2.338255l-0.008186-0.017396c-0.163729 0.109494-0.330528 0.213871-0.494257 0.322341-0.066515 0.044002-0.135076 0.085958-0.200568 0.130983-18.293645 12.110829-38.235836 20.417005-59.109236 20.417005-22.115694 0-41.417295-8.705266-61.925375-20.541849-0.506537-0.335644-1.037632-0.63445-1.582031-0.911766-0.063445-0.036839-0.125867-0.072655-0.190335-0.109494l-0.007163 0.01535c-2.121314-1.042749-4.498454-1.64343-7.02295-1.64343-8.820899 0-15.97074 7.14984-15.97074 15.97074 0 6.538927 3.933589 12.151761 9.559727 14.622022l-0.002047 0.005117c31.011294 21.367657 71.680553 23.685445 77.252455 23.685445 20.938891 0 49.871851-8.80248 73.759911-23.421432l-0.005117-0.010233c5.967922-2.314719 10.206456-8.096399 10.206456-14.881942C597.384158 598.963631 590.234317 591.812767 581.413418 591.812767z" p-id="2387" fill="#ffffff"></path></svg>